<svg xmlns="http://www.w3.org/2000/svg" xmlns:xlink="http://www.w3.org/1999/xlink" width="40" zoomAndPan="magnify" viewBox="0 0 30 30.000001" height="40" preserveAspectRatio="xMidYMid meet" version="1.0"><defs><clipPath id="dd4064e3c8"><path d="M 0.484375 0 L 29.515625 0 L 29.515625 29.03125 L 0.484375 29.03125 Z M 0.484375 0 " clip-rule="nonzero"/></clipPath><clipPath id="38a20c9e9b"><path d="M 0.484375 8 L 5 8 L 5 10 L 0.484375 10 Z M 0.484375 8 " clip-rule="nonzero"/></clipPath><clipPath id="14819d4e65"><path d="M 2 25 L 7 25 L 7 27.617188 L 2 27.617188 Z M 2 25 " clip-rule="nonzero"/></clipPath><clipPath id="1b063ac16c"><path d="M 5 19 L 20 19 L 20 27.617188 L 5 27.617188 Z M 5 19 " clip-rule="nonzero"/></clipPath><clipPath id="61d00a974c"><path d="M 2 26 L 7 26 L 7 27.617188 L 2 27.617188 Z M 2 26 " clip-rule="nonzero"/></clipPath><clipPath id="454ce4673e"><path d="M 16 6 L 24 6 L 24 27.617188 L 16 27.617188 Z M 16 6 " clip-rule="nonzero"/></clipPath><clipPath id="adf20d85d4"><path d="M 0.484375 6 L 7 6 L 7 9 L 0.484375 9 Z M 0.484375 6 " clip-rule="nonzero"/></clipPath><clipPath id="b55c44f67a"><path d="M 0.484375 6 L 7 6 L 7 10 L 0.484375 10 Z M 0.484375 6 " clip-rule="nonzero"/></clipPath><clipPath id="d55f07c323"><path d="M 14 1.488281 L 21 1.488281 L 21 4 L 14 4 Z M 14 1.488281 " clip-rule="nonzero"/></clipPath><clipPath id="32860b61cc"><path d="M 22 7 L 29.515625 7 L 29.515625 10 L 22 10 Z M 22 7 " clip-rule="nonzero"/></clipPath><clipPath id="c11036531d"><path d="M 22 20 L 28 20 L 28 27.617188 L 22 27.617188 Z M 22 20 " clip-rule="nonzero"/></clipPath><clipPath id="2661db8e6f"><path d="M 23 21 L 26 21 L 26 27.617188 L 23 27.617188 Z M 23 21 " clip-rule="nonzero"/></clipPath></defs><g clip-path="url(#dd4064e3c8)"><path fill="#ffffff" d="M 0.484375 0 L 29.515625 0 L 29.515625 29.03125 L 0.484375 29.03125 Z M 0.484375 0 " fill-opacity="1" fill-rule="nonzero"/><path fill="#ffffff" d="M 0.484375 0 L 29.515625 0 L 29.515625 29.03125 L 0.484375 29.03125 Z M 0.484375 0 " fill-opacity="1" fill-rule="nonzero"/></g><path fill="#405534" d="M 5.851562 8.734375 C 5.851562 8.839844 5.808594 8.945312 5.722656 9.042969 C 5.640625 9.144531 5.519531 9.230469 5.359375 9.308594 C 5.203125 9.382812 5.023438 9.441406 4.820312 9.484375 C 4.613281 9.527344 4.398438 9.546875 4.179688 9.546875 C 3.957031 9.546875 3.742188 9.527344 3.539062 9.484375 C 3.332031 9.441406 3.152344 9.382812 2.996094 9.308594 C 2.839844 9.230469 2.71875 9.144531 2.632812 9.042969 C 2.546875 8.945312 2.503906 8.839844 2.503906 8.734375 C 2.503906 8.625 2.546875 8.523438 2.632812 8.421875 C 2.71875 8.324219 2.839844 8.234375 2.996094 8.160156 C 3.152344 8.082031 3.332031 8.023438 3.539062 7.984375 C 3.742188 7.941406 3.957031 7.921875 4.179688 7.921875 C 4.398438 7.921875 4.613281 7.941406 4.820312 7.984375 C 5.023438 8.023438 5.203125 8.082031 5.359375 8.160156 C 5.519531 8.234375 5.640625 8.324219 5.722656 8.421875 C 5.808594 8.523438 5.851562 8.625 5.851562 8.734375 Z M 5.851562 8.734375 " fill-opacity="1" fill-rule="nonzero"/><g clip-path="url(#38a20c9e9b)"><path fill="#405534" d="M 4.523438 9.160156 C 4.523438 9.558594 3.667969 9.882812 2.609375 9.882812 C 1.554688 9.882812 0.695312 9.558594 0.695312 9.160156 C 0.695312 8.761719 1.554688 8.4375 2.609375 8.4375 C 3.667969 8.4375 4.523438 8.761719 4.523438 9.160156 Z M 4.523438 9.160156 " fill-opacity="1" fill-rule="nonzero"/></g><path fill="#405534" d="M 5.566406 10.011719 C 5.566406 10.410156 4.710938 10.734375 3.652344 10.734375 C 2.597656 10.734375 1.742188 10.410156 1.742188 10.011719 C 1.742188 9.613281 2.597656 9.289062 3.652344 9.289062 C 4.710938 9.289062 5.566406 9.613281 5.566406 10.011719 Z M 5.566406 10.011719 " fill-opacity="1" fill-rule="nonzero"/><path fill="#405534" d="M 5.625 10.453125 C 5.625 10.578125 5.527344 10.679688 5.335938 10.769531 C 5.144531 10.855469 4.910156 10.898438 4.640625 10.898438 C 4.367188 10.898438 4.132812 10.855469 3.941406 10.769531 C 3.75 10.679688 3.652344 10.578125 3.652344 10.453125 C 3.652344 10.332031 3.75 10.226562 3.941406 10.140625 C 4.132812 10.054688 4.367188 10.011719 4.640625 10.011719 C 4.910156 10.011719 5.144531 10.054688 5.335938 10.140625 C 5.527344 10.226562 5.625 10.332031 5.625 10.453125 Z M 5.625 10.453125 " fill-opacity="1" fill-rule="nonzero"/><path fill="#405534" d="M 26.023438 8.4375 C 26.023438 8.601562 25.933594 8.757812 25.757812 8.90625 C 25.582031 9.058594 25.328125 9.1875 25.003906 9.304688 C 24.675781 9.417969 24.300781 9.507812 23.875 9.570312 C 23.449219 9.632812 23.003906 9.664062 22.542969 9.664062 C 22.078125 9.664062 21.636719 9.632812 21.210938 9.570312 C 20.78125 9.507812 20.40625 9.417969 20.078125 9.304688 C 19.753906 9.1875 19.5 9.058594 19.324219 8.90625 C 19.148438 8.757812 19.058594 8.601562 19.058594 8.4375 C 19.058594 8.273438 19.148438 8.117188 19.324219 7.96875 C 19.5 7.820312 19.753906 7.6875 20.078125 7.570312 C 20.40625 7.457031 20.78125 7.367188 21.210938 7.304688 C 21.636719 7.242188 22.078125 7.210938 22.542969 7.210938 C 23.003906 7.210938 23.449219 7.242188 23.875 7.304688 C 24.300781 7.367188 24.675781 7.457031 25.003906 7.570312 C 25.328125 7.6875 25.582031 7.820312 25.757812 7.96875 C 25.933594 8.117188 26.023438 8.273438 26.023438 8.4375 Z M 26.023438 8.4375 " fill-opacity="1" fill-rule="nonzero"/><path fill="#405534" d="M 10.707031 10.027344 C 10.707031 10.195312 10.621094 10.355469 10.453125 10.511719 C 10.289062 10.664062 10.046875 10.800781 9.738281 10.921875 C 9.429688 11.039062 9.074219 11.132812 8.667969 11.195312 C 8.261719 11.257812 7.84375 11.292969 7.402344 11.292969 C 6.964844 11.292969 6.542969 11.257812 6.140625 11.195312 C 5.734375 11.132812 5.378906 11.039062 5.070312 10.921875 C 4.757812 10.800781 4.519531 10.664062 4.351562 10.511719 C 4.183594 10.355469 4.101562 10.195312 4.101562 10.027344 C 4.101562 9.859375 4.183594 9.699219 4.351562 9.542969 C 4.519531 9.390625 4.757812 9.253906 5.070312 9.132812 C 5.378906 9.015625 5.734375 8.925781 6.140625 8.859375 C 6.542969 8.796875 6.964844 8.765625 7.402344 8.765625 C 7.84375 8.765625 8.261719 8.796875 8.667969 8.859375 C 9.074219 8.925781 9.429688 9.015625 9.738281 9.132812 C 10.046875 9.253906 10.289062 9.390625 10.453125 9.542969 C 10.621094 9.699219 10.707031 9.859375 10.707031 10.027344 Z M 10.707031 10.027344 " fill-opacity="1" fill-rule="nonzero"/><path fill="#405534" d="M 15.464844 7.625 C 15.464844 7.792969 15.382812 7.953125 15.214844 8.105469 C 15.046875 8.261719 14.808594 8.398438 14.496094 8.515625 C 14.1875 8.636719 13.832031 8.726562 13.425781 8.792969 C 13.023438 8.855469 12.601562 8.886719 12.164062 8.886719 C 11.722656 8.886719 11.304688 8.855469 10.898438 8.792969 C 10.492188 8.726562 10.136719 8.636719 9.828125 8.515625 C 9.519531 8.398438 9.277344 8.261719 9.113281 8.105469 C 8.945312 7.953125 8.859375 7.792969 8.859375 7.625 C 8.859375 7.457031 8.945312 7.292969 9.113281 7.140625 C 9.277344 6.984375 9.519531 6.847656 9.828125 6.730469 C 10.136719 6.613281 10.492188 6.519531 10.898438 6.457031 C 11.304688 6.390625 11.722656 6.359375 12.164062 6.359375 C 12.601562 6.359375 13.023438 6.390625 13.425781 6.457031 C 13.832031 6.519531 14.1875 6.613281 14.496094 6.730469 C 14.808594 6.847656 15.046875 6.984375 15.214844 7.140625 C 15.382812 7.292969 15.464844 7.457031 15.464844 7.625 Z M 15.464844 7.625 " fill-opacity="1" fill-rule="nonzero"/><path fill="#405534" d="M 16.507812 7.117188 C 16.507812 7.285156 16.421875 7.449219 16.257812 7.601562 C 16.089844 7.757812 15.851562 7.894531 15.539062 8.011719 C 15.230469 8.128906 14.875 8.222656 14.46875 8.285156 C 14.0625 8.351562 13.644531 8.382812 13.203125 8.382812 C 12.765625 8.382812 12.34375 8.351562 11.941406 8.285156 C 11.535156 8.222656 11.179688 8.128906 10.871094 8.011719 C 10.558594 7.894531 10.320312 7.757812 10.152344 7.601562 C 9.984375 7.449219 9.902344 7.285156 9.902344 7.117188 C 9.902344 6.949219 9.984375 6.789062 10.152344 6.636719 C 10.320312 6.480469 10.558594 6.34375 10.871094 6.226562 C 11.179688 6.105469 11.535156 6.015625 11.941406 5.949219 C 12.34375 5.886719 12.765625 5.855469 13.203125 5.855469 C 13.644531 5.855469 14.0625 5.886719 14.46875 5.949219 C 14.875 6.015625 15.230469 6.105469 15.539062 6.226562 C 15.851562 6.34375 16.089844 6.480469 16.257812 6.636719 C 16.421875 6.789062 16.507812 6.949219 16.507812 7.117188 Z M 16.507812 7.117188 " fill-opacity="1" fill-rule="nonzero"/><path fill="#405534" d="M 11.128906 8.125 C 11.128906 8.292969 11.046875 8.453125 10.878906 8.609375 C 10.710938 8.761719 10.472656 8.898438 10.160156 9.019531 C 9.851562 9.136719 9.496094 9.226562 9.089844 9.292969 C 8.6875 9.355469 8.265625 9.386719 7.828125 9.386719 C 7.386719 9.386719 6.96875 9.355469 6.5625 9.292969 C 6.15625 9.226562 5.800781 9.136719 5.492188 9.019531 C 5.179688 8.898438 4.941406 8.761719 4.773438 8.609375 C 4.609375 8.453125 4.523438 8.292969 4.523438 8.125 C 4.523438 7.957031 4.609375 7.796875 4.773438 7.640625 C 4.941406 7.484375 5.179688 7.347656 5.492188 7.230469 C 5.800781 7.113281 6.15625 7.019531 6.5625 6.957031 C 6.96875 6.890625 7.386719 6.859375 7.828125 6.859375 C 8.265625 6.859375 8.6875 6.890625 9.089844 6.957031 C 9.496094 7.019531 9.851562 7.113281 10.160156 7.230469 C 10.472656 7.347656 10.710938 7.484375 10.878906 7.640625 C 11.046875 7.796875 11.128906 7.957031 11.128906 8.125 Z M 11.128906 8.125 " fill-opacity="1" fill-rule="nonzero"/><path fill="#ffffff" d="M 13.058594 18.953125 C 11.8125 18.195312 10.566406 17.4375 9.320312 16.679688 C 9.609375 15.777344 9.898438 14.875 10.191406 13.972656 C 11.582031 15.199219 12.976562 16.425781 14.371094 17.652344 C 13.933594 18.085938 13.496094 18.519531 13.058594 18.953125 Z M 13.058594 18.953125 " fill-opacity="1" fill-rule="nonzero"/><path fill="#f47f56" d="M 11.707031 23.640625 C 11.539062 24.050781 11.324219 24.535156 11.0625 25.082031 C 11 25.222656 10.929688 25.363281 10.855469 25.511719 C 10.734375 25.746094 10.609375 25.988281 10.472656 26.238281 C 10.167969 26.175781 9.859375 26.113281 9.550781 26.058594 C 9.632812 25.785156 9.707031 25.503906 9.78125 25.214844 C 10.125 23.867188 10.378906 22.351562 10.449219 20.683594 C 10.464844 20.265625 10.46875 19.855469 10.464844 19.460938 C 10.441406 18.757812 10.832031 18.175781 11.34375 18.042969 C 11.707031 17.949219 12.035156 18.101562 12.15625 18.167969 C 12.175781 18.441406 12.207031 18.863281 12.285156 19.375 C 12.363281 19.902344 12.449219 20.25 12.476562 20.390625 C 12.535156 20.699219 12.621094 21.402344 11.707031 23.640625 Z M 11.707031 23.640625 " fill-opacity="1" fill-rule="nonzero"/><path fill="#f47f56" d="M 7.429688 26.839844 C 8.664062 26.84375 9.902344 26.847656 11.136719 26.851562 C 11.171875 26.710938 11.199219 26.503906 11.113281 26.28125 C 11.082031 26.195312 11.046875 26.140625 11.027344 26.109375 C 10.929688 25.953125 10.8125 25.6875 10.75 25.21875 C 10.527344 25.195312 10.304688 25.167969 10.078125 25.144531 C 9.230469 26.289062 8.753906 26.515625 8.46875 26.5 C 8.265625 26.488281 8.074219 26.601562 7.875 26.601562 C 7.746094 26.601562 7.585938 26.589844 7.492188 26.695312 C 7.453125 26.742188 7.4375 26.796875 7.429688 26.839844 Z M 7.429688 26.839844 " fill-opacity="1" fill-rule="nonzero"/><path fill="#23100b" d="M 11.0625 25.082031 C 11 25.222656 10.929688 25.363281 10.855469 25.511719 C 10.5 25.414062 10.136719 25.3125 9.78125 25.214844 C 9.875 25.167969 9.96875 25.128906 10.058594 25.082031 Z M 11.0625 25.082031 " fill-opacity="1" fill-rule="nonzero"/><path fill="#a23a22" d="M 11.570312 25.453125 C 10.882812 25.359375 10.199219 25.269531 9.511719 25.175781 C 9.722656 23.390625 9.933594 21.605469 10.144531 19.820312 C 10.210938 18.851562 10.734375 18.101562 11.347656 17.988281 C 11.90625 17.886719 12.488281 18.320312 12.703125 18.484375 C 13.007812 18.714844 13.207031 18.964844 13.324219 19.136719 C 13.167969 19.351562 13.011719 19.566406 12.859375 19.78125 C 12.429688 21.671875 12 23.5625 11.570312 25.453125 Z M 11.570312 25.453125 " fill-opacity="1" fill-rule="nonzero"/><path fill="#a23a22" d="M 11.339844 18.042969 C 11 18.277344 11.164062 19.375 11.898438 20.683594 C 13.128906 22.296875 14.363281 23.910156 15.597656 25.527344 C 16.605469 24.917969 17.613281 24.304688 18.621094 23.695312 C 18.25 23.128906 17.777344 22.503906 17.171875 21.875 C 15.804688 20.449219 11.660156 17.824219 11.339844 18.042969 Z M 11.339844 18.042969 " fill-opacity="1" fill-rule="nonzero"/><path fill="#23100b" d="M 11.355469 26.914062 L 7.429688 26.914062 C 7.40625 26.84375 7.398438 26.777344 7.40625 26.71875 C 7.472656 26.007812 9.378906 25.703125 9.492188 25.6875 C 10.054688 26.234375 10.328125 26.3125 10.472656 26.238281 C 10.597656 26.171875 10.589844 25.960938 10.753906 25.917969 C 10.875 25.882812 11.015625 25.964844 11.09375 26.054688 C 11.199219 26.175781 11.195312 26.320312 11.195312 26.355469 C 11.222656 26.371094 11.347656 26.460938 11.386719 26.632812 C 11.417969 26.769531 11.371094 26.878906 11.355469 26.914062 Z M 11.355469 26.914062 " fill-opacity="1" fill-rule="nonzero"/><path fill="#ffffff" d="M 9.351562 26.121094 C 9.34375 26.121094 9.332031 26.117188 9.324219 26.109375 L 9.035156 25.796875 C 9.019531 25.78125 9.023438 25.753906 9.039062 25.738281 C 9.054688 25.722656 9.078125 25.726562 9.09375 25.742188 L 9.382812 26.054688 C 9.398438 26.070312 9.398438 26.097656 9.378906 26.113281 C 9.371094 26.117188 9.363281 26.121094 9.351562 26.121094 Z M 9.351562 26.121094 " fill-opacity="1" fill-rule="nonzero"/><path fill="#ffffff" d="M 9.082031 26.214844 C 9.070312 26.214844 9.0625 26.210938 9.054688 26.199219 L 8.746094 25.839844 C 8.730469 25.820312 8.734375 25.796875 8.75 25.78125 C 8.765625 25.765625 8.789062 25.769531 8.804688 25.785156 L 9.113281 26.148438 C 9.128906 26.164062 9.125 26.191406 9.109375 26.203125 C 9.101562 26.210938 9.09375 26.214844 9.082031 26.214844 Z M 9.082031 26.214844 " fill-opacity="1" fill-rule="nonzero"/><path fill="#f47f56" d="M 16.640625 18.898438 C 16.585938 18.953125 16.535156 19.007812 16.476562 19.0625 C 16.390625 19.152344 16.292969 19.25 16.1875 19.347656 C 15.773438 19.753906 15.25 20.246094 14.632812 20.789062 L 13.660156 19.804688 C 14.152344 19.160156 14.644531 18.511719 15.136719 17.863281 C 15.363281 17.570312 15.585938 17.277344 15.808594 16.988281 C 16.707031 16.511719 17.609375 16.035156 18.507812 15.554688 C 18.539062 15.613281 18.574219 15.695312 18.605469 15.804688 C 18.730469 16.34375 18.464844 17.046875 16.640625 18.898438 Z M 16.640625 18.898438 " fill-opacity="1" fill-rule="nonzero"/><path fill="#23100b" d="M 16.640625 18.898438 C 16.585938 18.953125 16.535156 19.007812 16.476562 19.0625 C 16.390625 19.152344 16.292969 19.25 16.1875 19.347656 C 15.839844 18.855469 15.488281 18.363281 15.136719 17.863281 C 15.550781 17.992188 15.949219 18.125 16.351562 18.261719 C 16.449219 18.472656 16.546875 18.6875 16.640625 18.898438 Z M 16.640625 18.898438 " fill-opacity="1" fill-rule="nonzero"/><path fill="#f4cf9d" d="M 16.558594 19.410156 C 16.085938 18.894531 15.613281 18.378906 15.140625 17.863281 C 15.550781 17.285156 15.957031 16.707031 16.367188 16.128906 C 17.207031 15.117188 18.289062 14.945312 18.675781 15.304688 C 18.996094 15.605469 18.949219 16.375 18.546875 17.117188 C 17.882812 17.882812 17.222656 18.644531 16.558594 19.410156 Z M 16.558594 19.410156 " fill-opacity="1" fill-rule="nonzero"/><g clip-path="url(#14819d4e65)"><path fill="#f47f56" d="M 6.21875 27.511719 C 4.984375 27.507812 3.753906 27.507812 2.515625 27.503906 C 2.523438 27.457031 2.535156 27.40625 2.578125 27.355469 C 2.671875 27.253906 2.832031 27.265625 2.957031 27.265625 C 3.160156 27.261719 3.351562 27.148438 3.550781 27.164062 C 3.839844 27.179688 4.316406 26.949219 5.164062 25.804688 C 5.386719 25.832031 5.613281 25.855469 5.835938 25.878906 C 5.882812 26.230469 5.960938 26.46875 6.039062 26.632812 C 6.0625 26.691406 6.085938 26.734375 6.113281 26.773438 C 6.132812 26.800781 6.167969 26.859375 6.199219 26.941406 C 6.285156 27.167969 6.253906 27.371094 6.21875 27.511719 Z M 6.21875 27.511719 " fill-opacity="1" fill-rule="nonzero"/></g><path fill="#23100b" d="M 6.039062 26.632812 C 5.746094 26.355469 5.457031 26.082031 5.164062 25.804688 C 5.386719 25.832031 5.613281 25.855469 5.835938 25.878906 C 5.882812 26.230469 5.960938 26.46875 6.039062 26.632812 Z M 6.039062 26.632812 " fill-opacity="1" fill-rule="nonzero"/><path fill="#f47f56" d="M 16.007812 13.992188 C 16.078125 14.273438 16.144531 14.550781 16.214844 14.832031 C 16.324219 15.277344 16.4375 15.722656 16.546875 16.171875 L 18.523438 15.710938 C 18.039062 14.730469 17.550781 13.746094 17.066406 12.765625 C 17.050781 12.890625 16.992188 13.300781 16.648438 13.636719 C 16.40625 13.871094 16.140625 13.960938 16.007812 13.992188 Z M 16.007812 13.992188 " fill-opacity="1" fill-rule="nonzero"/><path fill="#23100b" d="M 16.007812 13.992188 C 16.078125 14.273438 16.144531 14.550781 16.214844 14.832031 C 16.585938 14.734375 16.78125 14.210938 16.648438 13.648438 C 16.433594 13.753906 16.222656 13.875 16.007812 13.992188 Z M 16.007812 13.992188 " fill-opacity="1" fill-rule="nonzero"/><path fill="#f47f56" d="M 17.503906 26.375 C 18.210938 25.710938 18.917969 25.046875 19.625 24.382812 C 19.632812 22.679688 19.644531 20.976562 19.65625 19.273438 C 19.679688 19.082031 19.867188 17.535156 19.339844 16.382812 C 19.0625 15.785156 18.667969 15.363281 18.667969 15.363281 C 18.464844 15.144531 18.265625 14.988281 18.121094 14.886719 C 17.640625 15.09375 17.160156 15.296875 16.679688 15.503906 C 16.539062 15.628906 14.988281 17.074219 15.375 18.671875 C 15.429688 18.882812 15.519531 19.132812 15.695312 19.398438 C 15.902344 20.214844 16.113281 21.03125 16.324219 21.851562 C 16.71875 23.367188 17.109375 24.875 17.503906 26.375 Z M 17.503906 26.375 " fill-opacity="1" fill-rule="nonzero"/><path fill="#f47f56" d="M 17.414062 11.304688 C 17.40625 11.480469 17.398438 11.699219 17.394531 11.949219 C 17.382812 12.371094 17.367188 12.785156 17.332031 12.972656 C 17.3125 13.011719 17.296875 13.042969 17.285156 13.070312 C 16.949219 13.707031 16.554688 14.023438 16.320312 14.179688 C 15.984375 14.398438 15.574219 14.550781 15.449219 14.414062 C 15.367188 14.324219 15.355469 14.015625 15.300781 14.007812 C 15.289062 14.003906 15.273438 14.007812 15.253906 14 C 15.246094 13.996094 15.222656 13.988281 15.214844 13.964844 C 15.199219 13.941406 15.222656 13.902344 15.246094 13.878906 C 15.1875 13.90625 15.109375 13.863281 15.097656 13.859375 C 15.089844 13.855469 15.027344 13.820312 15.03125 13.792969 C 15.039062 13.773438 15.066406 13.765625 15.066406 13.742188 C 15.066406 13.730469 15.058594 13.722656 15.050781 13.714844 C 15.015625 13.683594 15.007812 13.636719 14.988281 13.542969 C 14.984375 13.53125 14.984375 13.523438 14.984375 13.523438 C 14.972656 13.464844 14.914062 13.285156 14.75 12.863281 C 14.710938 12.808594 14.664062 12.753906 14.621094 12.699219 C 14.613281 12.691406 14.605469 12.683594 14.597656 12.671875 C 14.589844 12.652344 14.589844 12.632812 14.589844 12.628906 C 14.589844 12.617188 14.546875 12.382812 14.441406 11.867188 C 14.441406 11.839844 14.4375 11.816406 14.4375 11.792969 C 14.433594 11.75 14.429688 11.703125 14.433594 11.648438 C 14.480469 11.15625 15.203125 10.449219 16.0625 10.472656 C 16.46875 10.480469 16.964844 10.664062 17.289062 11.101562 C 17.339844 11.167969 17.378906 11.234375 17.414062 11.304688 Z M 17.414062 11.304688 " fill-opacity="1" fill-rule="nonzero"/><path fill="#f47f56" d="M 14.664062 13.5 C 14.695312 13.566406 14.785156 13.589844 14.816406 13.597656 C 14.910156 13.617188 14.988281 13.585938 15.019531 13.574219 C 15.03125 13.550781 15.054688 13.507812 15.042969 13.460938 C 15.03125 13.421875 15 13.410156 14.976562 13.367188 C 14.960938 13.339844 14.941406 13.296875 14.945312 13.230469 C 14.878906 13.09375 14.8125 12.953125 14.742188 12.816406 C 14.734375 12.917969 14.726562 13.003906 14.722656 13.0625 C 14.707031 13.253906 14.710938 13.253906 14.699219 13.304688 C 14.675781 13.421875 14.644531 13.453125 14.664062 13.5 Z M 14.664062 13.5 " fill-opacity="1" fill-rule="nonzero"/><path fill="#23100b" d="M 14.90625 12.742188 C 14.894531 12.742188 14.886719 12.742188 14.878906 12.734375 L 14.773438 12.644531 C 14.757812 12.628906 14.757812 12.605469 14.769531 12.589844 C 14.785156 12.570312 14.808594 12.570312 14.828125 12.585938 L 14.898438 12.644531 C 14.949219 12.585938 15.054688 12.484375 15.214844 12.464844 C 15.335938 12.449219 15.433594 12.488281 15.496094 12.519531 C 15.515625 12.53125 15.523438 12.554688 15.511719 12.574219 C 15.5 12.59375 15.476562 12.601562 15.457031 12.589844 C 15.40625 12.5625 15.324219 12.53125 15.226562 12.542969 C 15.054688 12.5625 14.957031 12.699219 14.9375 12.726562 C 14.933594 12.734375 14.921875 12.742188 14.910156 12.742188 C 14.910156 12.742188 14.90625 12.742188 14.90625 12.742188 Z M 14.90625 12.742188 " fill-opacity="1" fill-rule="nonzero"/><path fill="#23100b" d="M 14.925781 12.753906 C 14.960938 12.832031 15.042969 12.871094 15.117188 12.839844 C 15.1875 12.808594 15.214844 12.71875 15.183594 12.640625 C 15.148438 12.566406 15.066406 12.527344 14.992188 12.558594 C 14.921875 12.589844 14.894531 12.675781 14.925781 12.753906 Z M 14.925781 12.753906 " fill-opacity="1" fill-rule="nonzero"/><path fill="#23100b" d="M 15.472656 12.242188 C 15.472656 12.242188 15.398438 12.230469 15.332031 12.238281 C 15.222656 12.246094 14.992188 12.308594 14.707031 12.425781 C 14.6875 12.40625 14.644531 12.355469 14.628906 12.273438 C 14.617188 12.207031 14.632812 12.152344 14.644531 12.125 C 14.84375 12.105469 14.988281 12.078125 15.089844 12.050781 C 15.125 12.039062 15.238281 12.007812 15.378906 12.027344 C 15.449219 12.035156 15.480469 12.050781 15.492188 12.058594 C 15.597656 12.113281 15.632812 12.230469 15.644531 12.273438 C 15.597656 12.261719 15.542969 12.25 15.472656 12.242188 Z M 15.472656 12.242188 " fill-opacity="1" fill-rule="nonzero"/><path fill="#23100b" d="M 15.253906 13.914062 C 15.242188 13.914062 15.226562 13.90625 15.21875 13.894531 C 15.210938 13.875 15.214844 13.851562 15.234375 13.839844 C 15.335938 13.78125 15.441406 13.722656 15.542969 13.664062 C 15.5625 13.652344 15.585938 13.65625 15.597656 13.679688 C 15.605469 13.695312 15.601562 13.722656 15.582031 13.730469 C 15.480469 13.789062 15.375 13.847656 15.273438 13.910156 C 15.269531 13.914062 15.261719 13.914062 15.253906 13.914062 Z M 15.253906 13.914062 " fill-opacity="1" fill-rule="nonzero"/><path fill="#23100b" d="M 15.390625 13.804688 C 15.386719 13.804688 15.0625 13.78125 15.0625 13.78125 C 15.042969 13.78125 15.023438 13.761719 15.027344 13.738281 C 15.027344 13.71875 15.046875 13.707031 15.070312 13.703125 L 15.394531 13.726562 C 15.414062 13.726562 15.429688 13.746094 15.429688 13.765625 C 15.429688 13.789062 15.410156 13.804688 15.390625 13.804688 Z M 15.390625 13.804688 " fill-opacity="1" fill-rule="nonzero"/><path fill="#f47f56" d="M 12.203125 20.710938 C 11.203125 20.101562 10.273438 19.84375 10.015625 20.132812 C 9.738281 20.445312 10.167969 21.46875 11.195312 22.558594 C 12.785156 23.820312 14.375 25.085938 15.960938 26.351562 C 16.789062 25.511719 17.617188 24.675781 18.449219 23.835938 C 17.953125 23.378906 17.339844 22.886719 16.601562 22.425781 C 14.929688 21.375 13.324219 20.921875 12.203125 20.710938 Z M 12.203125 20.710938 " fill-opacity="1" fill-rule="nonzero"/><g clip-path="url(#1b063ac16c)"><path fill="#a23a22" d="M 16.515625 26.925781 C 16.238281 26.710938 15.957031 26.5 15.671875 26.289062 C 13.839844 24.933594 12.007812 23.753906 10.210938 22.726562 C 10.117188 22.992188 10 23.265625 9.855469 23.542969 C 8.917969 25.339844 7.34375 26.292969 6.355469 26.761719 C 5.957031 26.441406 5.5625 26.125 5.164062 25.804688 C 6.796875 23.777344 7.859375 22.308594 8.453125 21.25 C 8.671875 20.859375 9.171875 19.945312 10.058594 19.777344 C 10.402344 19.710938 10.703125 19.777344 10.910156 19.84375 C 13.460938 20.679688 16.183594 21.917969 16.183594 21.917969 C 16.855469 22.238281 17.878906 22.695312 19.1875 23.167969 C 19.761719 24.636719 19.335938 26.128906 18.351562 26.726562 C 17.621094 27.171875 16.785156 26.996094 16.515625 26.925781 Z M 16.515625 26.925781 " fill-opacity="1" fill-rule="nonzero"/></g><g clip-path="url(#61d00a974c)"><path fill="#23100b" d="M 6.425781 27.605469 L 2.5 27.605469 C 2.476562 27.535156 2.46875 27.46875 2.476562 27.410156 C 2.542969 26.695312 4.449219 26.394531 4.5625 26.375 C 5.121094 26.921875 5.398438 27.003906 5.542969 26.925781 C 5.667969 26.863281 5.660156 26.652344 5.824219 26.605469 C 5.945312 26.574219 6.085938 26.652344 6.164062 26.742188 C 6.269531 26.863281 6.265625 27.011719 6.265625 27.042969 C 6.292969 27.0625 6.417969 27.152344 6.457031 27.324219 C 6.488281 27.457031 6.441406 27.566406 6.425781 27.605469 Z M 6.425781 27.605469 " fill-opacity="1" fill-rule="nonzero"/></g><path fill="#ffffff" d="M 4.421875 26.8125 C 4.414062 26.8125 4.402344 26.808594 4.394531 26.796875 L 4.105469 26.484375 C 4.089844 26.46875 4.09375 26.445312 4.109375 26.429688 C 4.125 26.414062 4.148438 26.414062 4.164062 26.429688 L 4.453125 26.746094 C 4.46875 26.761719 4.464844 26.785156 4.449219 26.800781 C 4.441406 26.808594 4.433594 26.8125 4.421875 26.8125 Z M 4.421875 26.8125 " fill-opacity="1" fill-rule="nonzero"/><path fill="#ffffff" d="M 4.152344 26.902344 C 4.140625 26.902344 4.132812 26.898438 4.125 26.890625 L 3.816406 26.527344 C 3.800781 26.511719 3.804688 26.484375 3.820312 26.472656 C 3.835938 26.457031 3.863281 26.457031 3.875 26.476562 L 4.183594 26.839844 C 4.199219 26.855469 4.195312 26.878906 4.179688 26.894531 C 4.171875 26.898438 4.164062 26.902344 4.152344 26.902344 Z M 4.152344 26.902344 " fill-opacity="1" fill-rule="nonzero"/><path fill="#23100b" d="M 9.632812 23.8125 C 9.625 23.8125 9.617188 23.8125 9.613281 23.808594 C 9.59375 23.796875 9.585938 23.773438 9.597656 23.753906 L 10.289062 22.574219 C 10.300781 22.554688 10.324219 22.546875 10.34375 22.558594 C 10.363281 22.570312 10.367188 22.59375 10.359375 22.613281 L 9.667969 23.792969 C 9.660156 23.804688 9.644531 23.8125 9.632812 23.8125 Z M 9.632812 23.8125 " fill-opacity="1" fill-rule="nonzero"/><path fill="#23100b" d="M 11.898438 24.289062 C 11.890625 24.289062 11.878906 24.289062 11.871094 24.28125 L 10.398438 22.964844 C 10.378906 22.953125 10.378906 22.925781 10.394531 22.910156 C 10.40625 22.894531 10.433594 22.890625 10.449219 22.90625 L 11.925781 24.222656 C 11.941406 24.234375 11.941406 24.261719 11.929688 24.277344 C 11.921875 24.285156 11.910156 24.289062 11.898438 24.289062 Z M 11.898438 24.289062 " fill-opacity="1" fill-rule="nonzero"/><path fill="#23100b" d="M 10.222656 22.351562 C 10.203125 22.351562 10.183594 22.335938 10.183594 22.316406 L 10.144531 22.066406 C 10.140625 22.042969 10.15625 22.023438 10.175781 22.019531 C 10.199219 22.015625 10.21875 22.03125 10.222656 22.054688 L 10.261719 22.304688 C 10.261719 22.324219 10.25 22.347656 10.226562 22.347656 C 10.226562 22.351562 10.222656 22.351562 10.222656 22.351562 Z M 10.222656 22.351562 " fill-opacity="1" fill-rule="nonzero"/><path fill="#23100b" d="M 10.375 22.523438 C 10.351562 22.523438 10.335938 22.503906 10.335938 22.484375 L 10.335938 22.046875 C 10.335938 22.023438 10.351562 22.007812 10.375 22.007812 C 10.398438 22.007812 10.414062 22.023438 10.414062 22.046875 L 10.414062 22.484375 C 10.414062 22.503906 10.398438 22.523438 10.375 22.523438 Z M 10.375 22.523438 " fill-opacity="1" fill-rule="nonzero"/><path fill="#23100b" d="M 16.757812 22.164062 C 16.746094 22.160156 11.300781 20.050781 11.300781 20.050781 C 11.28125 20.042969 11.269531 20.019531 11.277344 20 C 11.285156 19.980469 11.308594 19.96875 11.328125 19.976562 L 16.773438 22.085938 C 16.792969 22.09375 16.804688 22.117188 16.796875 22.140625 C 16.789062 22.15625 16.773438 22.164062 16.757812 22.164062 Z M 16.757812 22.164062 " fill-opacity="1" fill-rule="nonzero"/><path fill="#23100b" d="M 11.125 19.9375 C 10.957031 19.878906 10.796875 19.839844 10.632812 19.816406 C 10.492188 19.796875 10.347656 19.785156 10.203125 19.789062 C 10.179688 19.789062 10.164062 19.773438 10.164062 19.75 C 10.160156 19.730469 10.179688 19.710938 10.199219 19.710938 C 10.347656 19.707031 10.496094 19.714844 10.644531 19.738281 C 10.8125 19.761719 10.980469 19.804688 11.140625 19.859375 C 11.160156 19.867188 11.171875 19.890625 11.164062 19.910156 C 11.15625 19.925781 11.140625 19.9375 11.125 19.9375 Z M 11.125 19.9375 " fill-opacity="1" fill-rule="nonzero"/><path fill="#f4cf9d" d="M 19.96875 25.003906 C 19.6875 25.121094 19.265625 25.242188 18.863281 25.082031 C 18.152344 24.800781 18.304688 23.941406 17.414062 22.960938 C 16.777344 22.257812 16.449219 22.421875 16.082031 21.78125 C 15.816406 21.308594 15.992188 21.089844 15.707031 19.984375 C 15.429688 18.894531 15.261719 18.613281 15.246094 18.113281 C 15.226562 17.554688 15.394531 16.734375 16.324219 15.703125 C 16.925781 15.378906 17.527344 15.050781 18.132812 14.726562 C 18.472656 14.988281 18.933594 15.402344 19.324219 16.011719 C 20.003906 17.0625 20.117188 18.125 20.160156 19.570312 C 20.203125 20.980469 20.1875 22.824219 19.96875 25.003906 Z M 19.96875 25.003906 " fill-opacity="1" fill-rule="nonzero"/><path fill="#23100b" d="M 17.417969 11.132812 C 17.417969 11.183594 17.414062 11.242188 17.414062 11.304688 C 17.40625 11.480469 17.398438 11.699219 17.394531 11.949219 C 17.382812 12.371094 17.367188 12.785156 17.332031 12.972656 C 17.320312 13 17.304688 13.03125 17.285156 13.070312 C 17.210938 13.222656 17.203125 13.25 17.179688 13.257812 C 17.105469 13.28125 16.984375 13.09375 16.972656 13.074219 C 16.894531 12.949219 16.78125 12.707031 16.792969 12.300781 C 16.59375 12.394531 16.476562 12.375 16.410156 12.34375 C 16.289062 12.28125 16.269531 12.144531 16.160156 12.136719 C 16.0625 12.128906 16.03125 12.238281 15.953125 12.226562 C 15.796875 12.207031 15.808594 11.730469 15.628906 11.6875 C 15.503906 11.660156 15.410156 11.875 15.273438 11.839844 C 15.15625 11.804688 15.148438 11.628906 15.039062 11.613281 C 14.96875 11.605469 14.914062 11.671875 14.839844 11.742188 C 14.804688 11.777344 14.53125 12.03125 14.300781 12.0625 C 14.03125 12.097656 13.714844 11.847656 13.734375 11.679688 C 13.746094 11.542969 13.996094 11.515625 14.015625 11.351562 C 14.03125 11.242188 13.933594 11.144531 13.855469 11.078125 C 13.847656 11.023438 13.808594 10.75 13.988281 10.527344 C 14.191406 10.285156 14.570312 10.214844 14.75 10.347656 C 14.871094 10.441406 14.882812 10.621094 14.960938 10.617188 C 15.015625 10.617188 15.035156 10.523438 15.09375 10.449219 C 15.214844 10.296875 15.453125 10.300781 15.738281 10.3125 C 16.390625 10.339844 16.71875 10.355469 16.847656 10.429688 C 17.179688 10.617188 17.339844 10.933594 17.417969 11.132812 Z M 17.417969 11.132812 " fill-opacity="1" fill-rule="nonzero"/><path fill="#f47f56" d="M 16.84375 19.398438 C 16.792969 19.453125 16.746094 19.511719 16.691406 19.570312 C 16.609375 19.664062 16.519531 19.765625 16.421875 19.875 C 16.03125 20.304688 15.539062 20.828125 14.953125 21.40625 L 13.925781 20.480469 C 14.375 19.808594 14.828125 19.132812 15.28125 18.457031 C 15.488281 18.148438 15.691406 17.84375 15.898438 17.539062 C 16.765625 17.011719 17.636719 16.480469 18.503906 15.945312 C 18.539062 16 18.578125 16.082031 18.617188 16.1875 C 18.777344 16.71875 18.550781 17.4375 16.84375 19.398438 Z M 16.84375 19.398438 " fill-opacity="1" fill-rule="nonzero"/><path fill="#23100b" d="M 16.84375 19.398438 C 16.792969 19.453125 16.746094 19.511719 16.691406 19.570312 C 16.609375 19.664062 16.519531 19.765625 16.421875 19.875 C 16.042969 19.402344 15.664062 18.933594 15.28125 18.457031 C 15.699219 18.558594 16.105469 18.667969 16.515625 18.777344 C 16.625 18.980469 16.734375 19.191406 16.84375 19.398438 Z M 16.84375 19.398438 " fill-opacity="1" fill-rule="nonzero"/><path fill="#f4cf9d" d="M 16.792969 19.914062 C 16.292969 19.425781 15.789062 18.941406 15.285156 18.453125 C 15.65625 17.851562 16.03125 17.25 16.402344 16.648438 C 17.179688 15.585938 18.25 15.351562 18.65625 15.683594 C 18.992188 15.964844 18.992188 16.734375 18.636719 17.5 C 18.023438 18.304688 17.410156 19.109375 16.792969 19.914062 Z M 16.792969 19.914062 " fill-opacity="1" fill-rule="nonzero"/><path fill="#f69fa1" d="M 14.433594 18.046875 C 13.933594 18.710938 13.4375 19.371094 12.9375 20.035156 C 11.507812 18.921875 10.082031 17.8125 8.652344 16.699219 C 9.058594 15.78125 9.464844 14.859375 9.875 13.941406 C 11.394531 15.308594 12.914062 16.679688 14.433594 18.046875 Z M 14.433594 18.046875 " fill-opacity="1" fill-rule="nonzero"/><path fill="#f47f56" d="M 10.683594 17.972656 C 10.628906 17.761719 10.632812 17.59375 10.648438 17.476562 C 10.675781 17.300781 10.738281 17.152344 10.699219 17.128906 C 10.667969 17.113281 10.59375 17.183594 10.566406 17.214844 C 10.476562 17.304688 10.328125 17.488281 10.246094 17.84375 C 9.917969 17.632812 9.59375 17.425781 9.269531 17.21875 C 9.335938 17.441406 9.441406 17.722656 9.617188 18.023438 C 9.84375 18.402344 10.097656 18.675781 10.296875 18.855469 C 10.570312 19.054688 10.996094 19.363281 11.488281 19.78125 C 12.59375 20.71875 12.921875 21.121094 13.707031 21.375 C 14.03125 21.480469 14.691406 21.6875 15.136719 21.34375 C 15.304688 21.210938 15.394531 21.039062 15.441406 20.917969 C 15.347656 20.679688 15.253906 20.445312 15.160156 20.207031 C 14.773438 19.921875 14.4375 19.734375 14.21875 19.625 C 13.015625 19.011719 12.261719 19.089844 11.222656 18.390625 C 10.972656 18.222656 10.789062 18.066406 10.683594 17.972656 Z M 10.683594 17.972656 " fill-opacity="1" fill-rule="nonzero"/><g clip-path="url(#454ce4673e)"><path fill="#d98327" d="M 22.675781 26.960938 C 21.59375 26.984375 20.515625 27.011719 19.4375 27.035156 C 19.816406 25.621094 20.222656 23.605469 20.253906 21.160156 C 20.253906 21.007812 20.265625 19.527344 20.050781 17.8125 C 19.472656 13.183594 17.484375 8.722656 16.507812 6.703125 C 16.773438 6.5 17.039062 6.296875 17.304688 6.089844 C 18.527344 7.632812 19.414062 9.074219 20.050781 10.242188 C 20.804688 11.632812 22.007812 13.890625 22.660156 17.074219 C 23.09375 19.183594 23.113281 20.859375 23.121094 21.867188 C 23.136719 23.910156 22.917969 25.644531 22.675781 26.960938 Z M 22.675781 26.960938 " fill-opacity="1" fill-rule="nonzero"/></g><path fill="#d98327" d="M 13.730469 9.832031 C 12.324219 9.832031 10.695312 9.011719 8.878906 7.390625 L 9.152344 7.085938 C 11.0625 8.792969 12.730469 9.570312 14.109375 9.398438 C 14.191406 9.386719 14.296875 9.371094 14.425781 9.351562 C 14.898438 9.277344 15.6875 9.15625 16.765625 9.109375 C 17.425781 9.078125 18.097656 9.078125 18.753906 9.113281 L 18.734375 9.523438 C 18.089844 9.492188 17.433594 9.488281 16.785156 9.515625 C 15.726562 9.566406 14.949219 9.683594 14.488281 9.757812 C 14.355469 9.777344 14.246094 9.792969 14.160156 9.804688 C 14.019531 9.820312 13.878906 9.832031 13.730469 9.832031 Z M 13.730469 9.832031 " fill-opacity="1" fill-rule="nonzero"/><path fill="#d98327" d="M 19.71875 11.125 L 19.511719 10.898438 C 20.152344 10.308594 20.855469 9.75 21.601562 9.242188 C 21.765625 9.132812 21.875 9.058594 21.964844 9.003906 C 22.0625 8.9375 22.132812 8.894531 22.210938 8.835938 C 22.984375 8.261719 23.507812 7.222656 23.765625 5.75 L 24.066406 5.800781 C 23.796875 7.355469 23.234375 8.460938 22.394531 9.082031 C 22.308594 9.144531 22.234375 9.195312 22.132812 9.261719 C 22.042969 9.320312 21.933594 9.390625 21.773438 9.496094 C 21.042969 9.996094 20.347656 10.542969 19.71875 11.125 Z M 19.71875 11.125 " fill-opacity="1" fill-rule="nonzero"/><path fill="#d98327" d="M 6.945312 9.160156 C 6.859375 9.160156 6.777344 9.15625 6.6875 9.144531 C 5.757812 9.050781 4.867188 8.417969 4.039062 7.269531 L 4.285156 7.089844 C 5.0625 8.164062 5.882812 8.753906 6.71875 8.839844 C 7.054688 8.875 7.332031 8.824219 7.71875 8.753906 C 8.078125 8.691406 8.523438 8.609375 9.1875 8.566406 C 9.785156 8.523438 10.386719 8.523438 10.980469 8.5625 L 10.960938 8.871094 C 10.378906 8.832031 9.789062 8.832031 9.207031 8.871094 C 8.5625 8.917969 8.125 8.996094 7.773438 9.058594 C 7.460938 9.117188 7.210938 9.160156 6.945312 9.160156 Z M 6.945312 9.160156 " fill-opacity="1" fill-rule="nonzero"/><path fill="#d98327" d="M 6.761719 8.953125 C 6.679688 8.695312 6.621094 8.425781 6.585938 8.15625 C 6.519531 7.667969 6.53125 7.167969 6.621094 6.671875 L 6.921875 6.726562 C 6.839844 7.191406 6.828125 7.65625 6.890625 8.117188 C 6.925781 8.367188 6.980469 8.617188 7.054688 8.863281 Z M 6.761719 8.953125 " fill-opacity="1" fill-rule="nonzero"/><path fill="#d98327" d="M 21.535156 9.359375 C 21.484375 9.261719 21.417969 9.132812 21.34375 8.972656 C 21.285156 8.839844 21.078125 8.367188 20.941406 7.816406 C 20.742188 7.003906 20.746094 6.222656 20.785156 5.710938 L 21.089844 5.734375 C 21.054688 6.222656 21.050781 6.96875 21.238281 7.742188 C 21.367188 8.269531 21.566406 8.71875 21.621094 8.84375 C 21.691406 8.996094 21.757812 9.121094 21.804688 9.210938 Z M 21.535156 9.359375 " fill-opacity="1" fill-rule="nonzero"/><path fill="#d98327" d="M 20.644531 7.09375 C 20.304688 7.09375 19.820312 7.023438 19.363281 6.707031 C 19.066406 6.5 18.820312 6.21875 18.652344 5.886719 L 18.835938 5.792969 C 18.988281 6.09375 19.210938 6.351562 19.480469 6.539062 C 20.0625 6.941406 20.695312 6.902344 20.9375 6.867188 L 20.96875 7.070312 C 20.890625 7.082031 20.777344 7.09375 20.644531 7.09375 Z M 20.644531 7.09375 " fill-opacity="1" fill-rule="nonzero"/><path fill="#d98327" d="M 20.984375 6.53125 C 20.945312 6.53125 20.910156 6.53125 20.871094 6.527344 L 20.890625 6.320312 C 21.046875 6.335938 21.191406 6.3125 21.324219 6.257812 C 21.683594 6.101562 21.8125 5.75 21.84375 5.644531 L 22.039062 5.703125 C 22 5.828125 21.84375 6.257812 21.402344 6.445312 C 21.269531 6.503906 21.128906 6.53125 20.984375 6.53125 Z M 20.984375 6.53125 " fill-opacity="1" fill-rule="nonzero"/><path fill="#d98327" d="M 11.605469 9.132812 L 11.503906 8.953125 C 11.78125 8.796875 12.289062 8.441406 12.558594 7.777344 C 12.695312 7.441406 12.75 7.066406 12.714844 6.695312 L 12.921875 6.675781 C 12.957031 7.082031 12.894531 7.488281 12.746094 7.855469 C 12.453125 8.574219 11.90625 8.964844 11.605469 9.132812 Z M 11.605469 9.132812 " fill-opacity="1" fill-rule="nonzero"/><path fill="#d98327" d="M 12.5625 8.195312 C 12.34375 8.191406 12.015625 8.140625 11.703125 7.914062 C 11.597656 7.835938 11.394531 7.660156 11.246094 7.371094 C 11.152344 7.183594 11.089844 6.976562 11.074219 6.769531 L 11.277344 6.75 C 11.292969 6.933594 11.34375 7.113281 11.429688 7.277344 C 11.558594 7.527344 11.730469 7.679688 11.824219 7.746094 C 12.09375 7.941406 12.378906 7.988281 12.566406 7.992188 Z M 12.5625 8.195312 " fill-opacity="1" fill-rule="nonzero"/><path fill="#405534" d="M 14.371094 6.332031 C 14.371094 6.484375 14.238281 6.628906 13.96875 6.769531 C 13.703125 6.910156 13.324219 7.03125 12.828125 7.140625 C 12.335938 7.246094 11.765625 7.328125 11.121094 7.386719 C 10.472656 7.445312 9.800781 7.472656 9.105469 7.472656 C 8.40625 7.472656 7.734375 7.445312 7.089844 7.386719 C 6.441406 7.328125 5.875 7.246094 5.378906 7.140625 C 4.886719 7.03125 4.503906 6.910156 4.238281 6.769531 C 3.96875 6.628906 3.835938 6.484375 3.835938 6.332031 C 3.835938 6.183594 3.96875 6.035156 4.238281 5.898438 C 4.503906 5.757812 4.886719 5.632812 5.378906 5.527344 C 5.875 5.421875 6.441406 5.335938 7.089844 5.28125 C 7.734375 5.222656 8.40625 5.191406 9.105469 5.191406 C 9.800781 5.191406 10.472656 5.222656 11.121094 5.28125 C 11.765625 5.335938 12.335938 5.421875 12.828125 5.527344 C 13.324219 5.632812 13.703125 5.757812 13.96875 5.898438 C 14.238281 6.035156 14.371094 6.183594 14.371094 6.332031 Z M 14.371094 6.332031 " fill-opacity="1" fill-rule="nonzero"/><path fill="#405534" d="M 8.25 7.625 C 8.25 7.78125 8.167969 7.929688 8.007812 8.074219 C 7.847656 8.21875 7.617188 8.347656 7.320312 8.457031 C 7.019531 8.570312 6.679688 8.65625 6.289062 8.714844 C 5.898438 8.773438 5.496094 8.804688 5.074219 8.804688 C 4.652344 8.804688 4.25 8.773438 3.859375 8.714844 C 3.46875 8.65625 3.128906 8.570312 2.828125 8.457031 C 2.53125 8.347656 2.300781 8.21875 2.140625 8.074219 C 1.980469 7.929688 1.898438 7.78125 1.898438 7.625 C 1.898438 7.46875 1.980469 7.316406 2.140625 7.171875 C 2.300781 7.027344 2.53125 6.898438 2.828125 6.789062 C 3.128906 6.675781 3.46875 6.59375 3.859375 6.53125 C 4.25 6.472656 4.652344 6.441406 5.074219 6.441406 C 5.496094 6.441406 5.898438 6.472656 6.289062 6.53125 C 6.679688 6.59375 7.019531 6.675781 7.320312 6.789062 C 7.617188 6.898438 7.847656 7.027344 8.007812 7.171875 C 8.167969 7.316406 8.25 7.46875 8.25 7.625 Z M 8.25 7.625 " fill-opacity="1" fill-rule="nonzero"/><g clip-path="url(#adf20d85d4)"><path fill="#405534" d="M 6.148438 7.261719 C 6.148438 7.417969 6.078125 7.570312 5.933594 7.710938 C 5.789062 7.855469 5.585938 7.984375 5.320312 8.09375 C 5.054688 8.203125 4.75 8.289062 4.402344 8.347656 C 4.058594 8.40625 3.695312 8.4375 3.320312 8.4375 C 2.945312 8.4375 2.585938 8.40625 2.238281 8.347656 C 1.890625 8.289062 1.585938 8.203125 1.320312 8.09375 C 1.054688 7.984375 0.851562 7.855469 0.707031 7.710938 C 0.5625 7.570312 0.492188 7.417969 0.492188 7.261719 C 0.492188 7.105469 0.5625 6.957031 0.707031 6.8125 C 0.851562 6.667969 1.054688 6.542969 1.320312 6.433594 C 1.585938 6.320312 1.890625 6.238281 2.238281 6.175781 C 2.585938 6.117188 2.945312 6.089844 3.320312 6.089844 C 3.695312 6.089844 4.058594 6.117188 4.402344 6.175781 C 4.75 6.238281 5.054688 6.320312 5.320312 6.433594 C 5.585938 6.542969 5.789062 6.667969 5.933594 6.8125 C 6.078125 6.957031 6.148438 7.105469 6.148438 7.261719 Z M 6.148438 7.261719 " fill-opacity="1" fill-rule="nonzero"/></g><g clip-path="url(#b55c44f67a)"><path fill="#405534" d="M 6.148438 8.015625 C 6.148438 8.171875 6.078125 8.320312 5.933594 8.464844 C 5.789062 8.609375 5.585938 8.734375 5.320312 8.84375 C 5.054688 8.957031 4.75 9.039062 4.402344 9.101562 C 4.058594 9.160156 3.695312 9.1875 3.320312 9.1875 C 2.945312 9.1875 2.585938 9.160156 2.238281 9.101562 C 1.890625 9.039062 1.585938 8.957031 1.320312 8.84375 C 1.054688 8.734375 0.851562 8.609375 0.707031 8.464844 C 0.5625 8.320312 0.492188 8.171875 0.492188 8.015625 C 0.492188 7.859375 0.5625 7.707031 0.707031 7.566406 C 0.851562 7.421875 1.054688 7.292969 1.320312 7.183594 C 1.585938 7.074219 1.890625 6.988281 2.238281 6.929688 C 2.585938 6.871094 2.945312 6.839844 3.320312 6.839844 C 3.695312 6.839844 4.058594 6.871094 4.402344 6.929688 C 4.75 6.988281 5.054688 7.074219 5.320312 7.183594 C 5.585938 7.292969 5.789062 7.421875 5.933594 7.566406 C 6.078125 7.707031 6.148438 7.859375 6.148438 8.015625 Z M 6.148438 8.015625 " fill-opacity="1" fill-rule="nonzero"/></g><path fill="#405534" d="M 13.925781 6.859375 C 13.925781 7.28125 13.136719 7.625 12.164062 7.625 C 11.1875 7.625 10.398438 7.28125 10.398438 6.859375 C 10.398438 6.433594 11.1875 6.089844 12.164062 6.089844 C 13.136719 6.089844 13.925781 6.433594 13.925781 6.859375 Z M 13.925781 6.859375 " fill-opacity="1" fill-rule="nonzero"/><path fill="#405534" d="M 15.664062 5.21875 C 15.664062 5.835938 14.195312 6.332031 12.386719 6.332031 C 10.574219 6.332031 9.105469 5.835938 9.105469 5.21875 C 9.105469 4.605469 10.574219 4.105469 12.386719 4.105469 C 14.195312 4.105469 15.664062 4.605469 15.664062 5.21875 Z M 15.664062 5.21875 " fill-opacity="1" fill-rule="nonzero"/><path fill="#405534" d="M 11.503906 4.144531 C 11.503906 4.546875 10.585938 4.875 9.453125 4.875 C 8.320312 4.875 7.402344 4.546875 7.402344 4.144531 C 7.402344 3.742188 8.320312 3.414062 9.453125 3.414062 C 10.585938 3.414062 11.503906 3.742188 11.503906 4.144531 Z M 11.503906 4.144531 " fill-opacity="1" fill-rule="nonzero"/><path fill="#405534" d="M 21.175781 6.5625 C 21.175781 7.425781 19.667969 8.125 17.804688 8.125 C 15.941406 8.125 14.433594 7.425781 14.433594 6.5625 C 14.433594 5.703125 15.941406 5.003906 17.804688 5.003906 C 19.667969 5.003906 21.175781 5.703125 21.175781 6.5625 Z M 21.175781 6.5625 " fill-opacity="1" fill-rule="nonzero"/><path fill="#405534" d="M 21.175781 4.847656 C 21.175781 5.796875 19.171875 6.5625 16.695312 6.5625 C 14.222656 6.5625 12.21875 5.796875 12.21875 4.847656 C 12.21875 3.898438 14.222656 3.128906 16.695312 3.128906 C 19.171875 3.128906 21.175781 3.898438 21.175781 4.847656 Z M 21.175781 4.847656 " fill-opacity="1" fill-rule="nonzero"/><path fill="#405534" d="M 18.257812 3.488281 C 18.257812 4.15625 16.984375 4.695312 15.414062 4.695312 C 13.84375 4.695312 12.570312 4.15625 12.570312 3.488281 C 12.570312 2.824219 13.84375 2.28125 15.414062 2.28125 C 16.984375 2.28125 18.257812 2.824219 18.257812 3.488281 Z M 18.257812 3.488281 " fill-opacity="1" fill-rule="nonzero"/><g clip-path="url(#d55f07c323)"><path fill="#405534" d="M 20.96875 2.640625 C 20.96875 3.28125 19.46875 3.796875 17.617188 3.796875 C 15.765625 3.796875 14.265625 3.28125 14.265625 2.640625 C 14.265625 2.003906 15.765625 1.488281 17.617188 1.488281 C 19.46875 1.488281 20.96875 2.003906 20.96875 2.640625 Z M 20.96875 2.640625 " fill-opacity="1" fill-rule="nonzero"/></g><path fill="#405534" d="M 26.261719 4.640625 C 26.261719 4.8125 26.226562 4.984375 26.152344 5.152344 C 26.078125 5.320312 25.96875 5.484375 25.824219 5.644531 C 25.683594 5.800781 25.503906 5.953125 25.296875 6.097656 C 25.085938 6.242188 24.851562 6.371094 24.582031 6.496094 C 24.316406 6.617188 24.027344 6.726562 23.714844 6.820312 C 23.402344 6.917969 23.070312 6.996094 22.722656 7.0625 C 22.375 7.128906 22.019531 7.179688 21.648438 7.210938 C 21.28125 7.246094 20.90625 7.261719 20.53125 7.261719 C 20.15625 7.261719 19.78125 7.246094 19.414062 7.210938 C 19.042969 7.179688 18.6875 7.128906 18.339844 7.0625 C 17.992188 6.996094 17.660156 6.917969 17.347656 6.820312 C 17.035156 6.726562 16.746094 6.617188 16.480469 6.496094 C 16.210938 6.371094 15.976562 6.242188 15.765625 6.097656 C 15.558594 5.953125 15.378906 5.800781 15.238281 5.644531 C 15.09375 5.484375 14.984375 5.320312 14.910156 5.152344 C 14.835938 4.984375 14.800781 4.8125 14.800781 4.640625 C 14.800781 4.46875 14.835938 4.296875 14.910156 4.128906 C 14.984375 3.960938 15.09375 3.796875 15.238281 3.636719 C 15.378906 3.476562 15.558594 3.324219 15.765625 3.183594 C 15.976562 3.039062 16.210938 2.90625 16.480469 2.785156 C 16.746094 2.664062 17.035156 2.554688 17.347656 2.460938 C 17.660156 2.363281 17.992188 2.28125 18.339844 2.214844 C 18.6875 2.152344 19.042969 2.101562 19.414062 2.066406 C 19.78125 2.035156 20.15625 2.015625 20.53125 2.015625 C 20.90625 2.015625 21.28125 2.035156 21.648438 2.066406 C 22.019531 2.101562 22.375 2.152344 22.722656 2.214844 C 23.070312 2.28125 23.402344 2.363281 23.714844 2.460938 C 24.027344 2.554688 24.316406 2.664062 24.582031 2.785156 C 24.851562 2.90625 25.085938 3.039062 25.296875 3.183594 C 25.503906 3.324219 25.683594 3.476562 25.824219 3.636719 C 25.96875 3.796875 26.078125 3.960938 26.152344 4.128906 C 26.226562 4.296875 26.261719 4.46875 26.261719 4.640625 Z M 26.261719 4.640625 " fill-opacity="1" fill-rule="nonzero"/><path fill="#405534" d="M 26.980469 5.953125 C 26.980469 6.125 26.910156 6.292969 26.769531 6.453125 C 26.628906 6.613281 26.429688 6.757812 26.167969 6.878906 C 25.910156 7 25.613281 7.097656 25.273438 7.164062 C 24.9375 7.230469 24.582031 7.261719 24.21875 7.261719 C 23.851562 7.261719 23.5 7.230469 23.160156 7.164062 C 22.820312 7.097656 22.523438 7 22.265625 6.878906 C 22.003906 6.757812 21.804688 6.613281 21.664062 6.453125 C 21.527344 6.292969 21.457031 6.125 21.457031 5.953125 C 21.457031 5.777344 21.527344 5.609375 21.664062 5.449219 C 21.804688 5.289062 22.003906 5.148438 22.265625 5.023438 C 22.523438 4.902344 22.820312 4.804688 23.160156 4.738281 C 23.5 4.671875 23.851562 4.640625 24.21875 4.640625 C 24.582031 4.640625 24.9375 4.671875 25.273438 4.738281 C 25.613281 4.804688 25.910156 4.902344 26.167969 5.023438 C 26.429688 5.148438 26.628906 5.289062 26.769531 5.449219 C 26.910156 5.609375 26.980469 5.777344 26.980469 5.953125 Z M 26.980469 5.953125 " fill-opacity="1" fill-rule="nonzero"/><g clip-path="url(#32860b61cc)"><path fill="#405534" d="M 29.503906 8.761719 C 29.503906 9.4375 27.945312 9.984375 26.023438 9.984375 C 24.101562 9.984375 22.542969 9.4375 22.542969 8.761719 C 22.542969 8.082031 24.101562 7.535156 26.023438 7.535156 C 27.945312 7.535156 29.503906 8.082031 29.503906 8.761719 Z M 29.503906 8.761719 " fill-opacity="1" fill-rule="nonzero"/></g><path fill="#405534" d="M 28.550781 9.832031 C 28.550781 9.992188 28.460938 10.148438 28.285156 10.300781 C 28.105469 10.449219 27.855469 10.582031 27.527344 10.699219 C 27.203125 10.8125 26.828125 10.902344 26.398438 10.964844 C 25.972656 11.023438 25.527344 11.054688 25.066406 11.054688 C 24.605469 11.054688 24.160156 11.023438 23.734375 10.964844 C 23.308594 10.902344 22.933594 10.8125 22.605469 10.699219 C 22.277344 10.582031 22.027344 10.449219 21.851562 10.300781 C 21.675781 10.148438 21.585938 9.992188 21.585938 9.832031 C 21.585938 9.667969 21.675781 9.511719 21.851562 9.363281 C 22.027344 9.210938 22.277344 9.078125 22.605469 8.964844 C 22.933594 8.847656 23.308594 8.761719 23.734375 8.699219 C 24.160156 8.636719 24.605469 8.605469 25.066406 8.605469 C 25.527344 8.605469 25.972656 8.636719 26.398438 8.699219 C 26.828125 8.761719 27.203125 8.847656 27.527344 8.964844 C 27.855469 9.078125 28.105469 9.210938 28.285156 9.363281 C 28.460938 9.511719 28.550781 9.667969 28.550781 9.832031 Z M 28.550781 9.832031 " fill-opacity="1" fill-rule="nonzero"/><path fill="#405534" d="M 26.808594 11.292969 C 26.808594 11.96875 26.027344 12.515625 25.066406 12.515625 C 24.105469 12.515625 23.328125 11.96875 23.328125 11.292969 C 23.328125 10.613281 24.105469 10.066406 25.066406 10.066406 C 26.027344 10.066406 26.808594 10.613281 26.808594 11.292969 Z M 26.808594 11.292969 " fill-opacity="1" fill-rule="nonzero"/><path fill="#405534" d="M 25.890625 7.085938 C 25.890625 7.761719 24.332031 8.3125 22.40625 8.3125 C 20.484375 8.3125 18.925781 7.761719 18.925781 7.085938 C 18.925781 6.410156 20.484375 5.859375 22.40625 5.859375 C 24.332031 5.859375 25.890625 6.410156 25.890625 7.085938 Z M 25.890625 7.085938 " fill-opacity="1" fill-rule="nonzero"/><path fill="#405534" d="M 27.832031 7.117188 C 27.832031 7.550781 26.855469 7.902344 25.648438 7.902344 C 24.441406 7.902344 23.464844 7.550781 23.464844 7.117188 C 23.464844 6.683594 24.441406 6.332031 25.648438 6.332031 C 26.855469 6.332031 27.832031 6.683594 27.832031 7.117188 Z M 27.832031 7.117188 " fill-opacity="1" fill-rule="nonzero"/><path fill="#405534" d="M 21.585938 7.695312 C 21.585938 7.929688 21.148438 8.125 20.613281 8.125 C 20.074219 8.125 19.640625 7.929688 19.640625 7.695312 C 19.640625 7.457031 20.074219 7.261719 20.613281 7.261719 C 21.152344 7.261719 21.585938 7.457031 21.585938 7.695312 Z M 21.585938 7.695312 " fill-opacity="1" fill-rule="nonzero"/><path fill="#405534" d="M 24.480469 9.546875 C 24.480469 9.703125 23.953125 9.832031 23.304688 9.832031 C 22.65625 9.832031 22.132812 9.703125 22.132812 9.546875 C 22.132812 9.390625 22.65625 9.261719 23.304688 9.261719 C 23.953125 9.261719 24.480469 9.390625 24.480469 9.546875 Z M 24.480469 9.546875 " fill-opacity="1" fill-rule="nonzero"/><path fill="#405534" d="M 17.847656 3.511719 C 17.847656 4.335938 16.210938 5.003906 14.1875 5.003906 C 12.164062 5.003906 10.527344 4.335938 10.527344 3.511719 C 10.527344 2.6875 12.167969 2.015625 14.1875 2.015625 C 16.210938 2.015625 17.847656 2.6875 17.847656 3.511719 Z M 17.847656 3.511719 " fill-opacity="1" fill-rule="nonzero"/><path fill="#405534" d="M 13.035156 5.21875 C 13.035156 5.386719 12.953125 5.546875 12.785156 5.703125 C 12.617188 5.859375 12.378906 5.996094 12.070312 6.113281 C 11.757812 6.230469 11.402344 6.324219 10.996094 6.386719 C 10.59375 6.453125 10.171875 6.484375 9.734375 6.484375 C 9.296875 6.484375 8.875 6.453125 8.46875 6.386719 C 8.066406 6.324219 7.707031 6.230469 7.398438 6.113281 C 7.089844 5.996094 6.851562 5.859375 6.683594 5.703125 C 6.515625 5.546875 6.429688 5.386719 6.429688 5.21875 C 6.429688 5.050781 6.515625 4.890625 6.683594 4.734375 C 6.851562 4.582031 7.089844 4.445312 7.398438 4.324219 C 7.707031 4.207031 8.066406 4.117188 8.46875 4.050781 C 8.875 3.988281 9.296875 3.957031 9.734375 3.957031 C 10.171875 3.957031 10.59375 3.988281 10.996094 4.050781 C 11.402344 4.117188 11.757812 4.207031 12.070312 4.324219 C 12.378906 4.445312 12.617188 4.582031 12.785156 4.734375 C 12.953125 4.890625 13.035156 5.050781 13.035156 5.21875 Z M 13.035156 5.21875 " fill-opacity="1" fill-rule="nonzero"/><path fill="#405534" d="M 8.925781 6.089844 C 8.925781 6.253906 8.84375 6.417969 8.675781 6.570312 C 8.507812 6.726562 8.269531 6.863281 7.960938 6.980469 C 7.648438 7.101562 7.292969 7.191406 6.886719 7.253906 C 6.484375 7.320312 6.0625 7.351562 5.625 7.351562 C 5.1875 7.351562 4.765625 7.320312 4.359375 7.253906 C 3.957031 7.191406 3.597656 7.101562 3.289062 6.980469 C 2.980469 6.863281 2.742188 6.726562 2.574219 6.570312 C 2.40625 6.417969 2.320312 6.253906 2.320312 6.089844 C 2.320312 5.921875 2.40625 5.757812 2.574219 5.605469 C 2.742188 5.449219 2.980469 5.3125 3.289062 5.195312 C 3.597656 5.074219 3.957031 4.984375 4.359375 4.921875 C 4.765625 4.855469 5.1875 4.824219 5.625 4.824219 C 6.0625 4.824219 6.484375 4.855469 6.886719 4.921875 C 7.292969 4.984375 7.648438 5.074219 7.960938 5.195312 C 8.269531 5.3125 8.507812 5.449219 8.675781 5.605469 C 8.84375 5.757812 8.925781 5.921875 8.925781 6.089844 Z M 8.925781 6.089844 " fill-opacity="1" fill-rule="nonzero"/><path fill="#405534" d="M 10.257812 4.394531 C 10.257812 4.5625 10.175781 4.722656 10.007812 4.878906 C 9.839844 5.03125 9.601562 5.167969 9.289062 5.289062 C 8.980469 5.40625 8.625 5.496094 8.21875 5.5625 C 7.816406 5.625 7.394531 5.65625 6.957031 5.65625 C 6.519531 5.65625 6.097656 5.625 5.691406 5.5625 C 5.289062 5.496094 4.929688 5.40625 4.621094 5.289062 C 4.3125 5.167969 4.074219 5.03125 3.90625 4.878906 C 3.738281 4.722656 3.652344 4.5625 3.652344 4.394531 C 3.652344 4.226562 3.738281 4.066406 3.90625 3.910156 C 4.074219 3.753906 4.3125 3.617188 4.621094 3.5 C 4.929688 3.382812 5.289062 3.289062 5.691406 3.226562 C 6.097656 3.164062 6.519531 3.128906 6.957031 3.128906 C 7.394531 3.128906 7.816406 3.164062 8.21875 3.226562 C 8.625 3.289062 8.980469 3.382812 9.289062 3.5 C 9.601562 3.617188 9.839844 3.753906 10.007812 3.910156 C 10.175781 4.066406 10.257812 4.226562 10.257812 4.394531 Z M 10.257812 4.394531 " fill-opacity="1" fill-rule="nonzero"/><path fill="#405534" d="M 12.816406 3.957031 C 12.816406 4.125 12.730469 4.285156 12.5625 4.4375 C 12.394531 4.59375 12.15625 4.730469 11.847656 4.847656 C 11.539062 4.96875 11.179688 5.058594 10.777344 5.125 C 10.371094 5.1875 9.949219 5.21875 9.511719 5.21875 C 9.074219 5.21875 8.652344 5.1875 8.25 5.125 C 7.84375 5.058594 7.488281 4.96875 7.175781 4.847656 C 6.867188 4.730469 6.628906 4.59375 6.460938 4.4375 C 6.292969 4.285156 6.210938 4.125 6.210938 3.957031 C 6.210938 3.789062 6.292969 3.628906 6.460938 3.472656 C 6.628906 3.316406 6.867188 3.179688 7.175781 3.0625 C 7.488281 2.945312 7.84375 2.851562 8.25 2.789062 C 8.652344 2.722656 9.074219 2.691406 9.511719 2.691406 C 9.949219 2.691406 10.371094 2.722656 10.777344 2.789062 C 11.179688 2.851562 11.539062 2.945312 11.847656 3.0625 C 12.15625 3.179688 12.394531 3.316406 12.5625 3.472656 C 12.730469 3.628906 12.816406 3.789062 12.816406 3.957031 Z M 12.816406 3.957031 " fill-opacity="1" fill-rule="nonzero"/><path fill="#405534" d="M 14.71875 3.511719 C 14.71875 3.679688 14.636719 3.839844 14.46875 3.996094 C 14.300781 4.148438 14.0625 4.285156 13.753906 4.40625 C 13.441406 4.523438 13.085938 4.613281 12.679688 4.679688 C 12.277344 4.742188 11.855469 4.773438 11.417969 4.773438 C 10.980469 4.773438 10.558594 4.742188 10.152344 4.679688 C 9.75 4.613281 9.390625 4.523438 9.082031 4.40625 C 8.773438 4.285156 8.535156 4.148438 8.367188 3.996094 C 8.199219 3.839844 8.113281 3.679688 8.113281 3.511719 C 8.113281 3.34375 8.199219 3.183594 8.367188 3.027344 C 8.535156 2.871094 8.773438 2.734375 9.082031 2.617188 C 9.390625 2.5 9.75 2.40625 10.152344 2.34375 C 10.558594 2.277344 10.980469 2.246094 11.417969 2.246094 C 11.855469 2.246094 12.277344 2.277344 12.679688 2.34375 C 13.085938 2.40625 13.441406 2.5 13.753906 2.617188 C 14.0625 2.734375 14.300781 2.871094 14.46875 3.027344 C 14.636719 3.183594 14.71875 3.34375 14.71875 3.511719 Z M 14.71875 3.511719 " fill-opacity="1" fill-rule="nonzero"/><g clip-path="url(#c11036531d)"><path fill="#405534" d="M 26.53125 27.613281 L 23.421875 27.613281 C 23.0625 27.613281 22.769531 27.320312 22.769531 26.957031 L 22.769531 21.828125 C 22.769531 21.164062 23.304688 20.628906 23.96875 20.628906 C 25.796875 20.628906 27.273438 22.109375 27.273438 23.933594 L 27.273438 26.867188 C 27.273438 27.277344 26.941406 27.613281 26.53125 27.613281 Z M 26.53125 27.613281 " fill-opacity="1" fill-rule="nonzero"/></g><g clip-path="url(#2661db8e6f)"><path fill="#ffffff" d="M 24.945312 27.613281 C 24.914062 27.605469 24.902344 27.582031 24.90625 27.5625 C 25.167969 26.722656 25.390625 25.40625 24.972656 23.886719 C 24.605469 22.566406 23.898438 21.636719 23.367188 21.089844 C 23.351562 21.074219 23.351562 21.050781 23.367188 21.035156 C 23.386719 21.019531 23.410156 21.019531 23.425781 21.035156 C 23.960938 21.589844 24.679688 22.53125 25.046875 23.863281 C 25.472656 25.402344 25.246094 26.738281 24.984375 27.585938 C 24.976562 27.605469 24.960938 27.613281 24.945312 27.613281 Z M 24.945312 27.613281 " fill-opacity="1" fill-rule="nonzero"/></g><path fill="#ffffff" d="M 25.167969 24.433594 C 25.144531 24.433594 25.128906 24.417969 25.128906 24.394531 C 25.125 24.371094 25.144531 24.355469 25.164062 24.355469 L 27.324219 24.28125 C 27.347656 24.28125 27.363281 24.296875 27.367188 24.316406 C 27.367188 24.339844 27.347656 24.359375 27.328125 24.359375 Z M 25.167969 24.433594 " fill-opacity="1" fill-rule="nonzero"/><path fill="#ffffff" d="M 25.636719 23.914062 L 26.046875 23.914062 L 26.046875 24.734375 L 25.636719 24.734375 Z M 25.636719 23.914062 " fill-opacity="1" fill-rule="nonzero"/><path fill="#ffffff" d="M 26.863281 23.914062 L 27.273438 23.914062 L 27.273438 24.734375 L 26.863281 24.734375 Z M 26.863281 23.914062 " fill-opacity="1" fill-rule="nonzero"/><path fill="#23100b" d="M 23.664062 20.976562 C 23.640625 20.976562 23.613281 20.964844 23.601562 20.941406 C 23.335938 20.550781 23.375 20.03125 23.691406 19.757812 C 23.90625 19.570312 24.226562 19.519531 24.464844 19.632812 C 24.632812 19.707031 24.761719 19.859375 24.835938 20.0625 C 24.929688 20.324219 24.90625 20.636719 24.773438 20.917969 C 24.753906 20.957031 24.707031 20.976562 24.667969 20.957031 C 24.628906 20.9375 24.613281 20.890625 24.628906 20.851562 C 24.746094 20.609375 24.765625 20.339844 24.683594 20.113281 C 24.628906 19.953125 24.527344 19.832031 24.398438 19.773438 C 24.214844 19.691406 23.960938 19.734375 23.792969 19.878906 C 23.539062 20.097656 23.511719 20.527344 23.730469 20.851562 C 23.753906 20.890625 23.746094 20.9375 23.710938 20.960938 C 23.695312 20.972656 23.679688 20.976562 23.664062 20.976562 Z M 23.664062 20.976562 " fill-opacity="1" fill-rule="nonzero"/></svg>